<svg xmlns="http://www.w3.org/2000/svg" viewBox="0 0 400 156.82"><defs><style>.cls-1{fill:#0065b3;}.cls-2{fill:none;}.cls-3{fill:#57409b;}.cls-4{fill:#fda619;}</style></defs><title>dbd_logo</title><g id="Layer_2" data-name="Layer 2"><g id="Layer_1-2" data-name="Layer 1"><path class="cls-1" d="M227.23,119.35a9.42,9.42,0,0,1,4,3.43,11.44,11.44,0,0,1,1.84,4.78,29.83,29.83,0,0,1,.2,4.59H216.41c.1,2.33.9,3.95,2.42,4.89a6.18,6.18,0,0,0,3.34.87,5.16,5.16,0,0,0,3.36-1.06,5.21,5.21,0,0,0,1.25-1.6H233a7.56,7.56,0,0,1-2.24,4.19q-3.11,3.38-8.71,3.37a12.66,12.66,0,0,1-8.15-2.84q-3.53-2.85-3.53-9.27,0-6,3.19-9.22a11.14,11.14,0,0,1,8.27-3.21A13.26,13.26,0,0,1,227.23,119.35Zm-9.06,5.23a6.3,6.3,0,0,0-1.61,3.58H227a5.1,5.1,0,0,0-1.61-3.66,5.33,5.33,0,0,0-3.59-1.24A4.82,4.82,0,0,0,218.17,124.58Z"/><path class="cls-1" d="M247.78,118.86a7.25,7.25,0,0,1,3.56,3.36v-3.34h5.91v22c0,3-.51,5.24-1.51,6.75q-2.6,3.9-9.94,3.91a13.55,13.55,0,0,1-7.24-1.74,6.43,6.43,0,0,1-3.1-5.21H242a2.73,2.73,0,0,0,.83,1.53,5.06,5.06,0,0,0,3.29.83q3.27,0,4.38-2.19a11.07,11.07,0,0,0,.72-4.71v-1.49a7.4,7.4,0,0,1-1.87,2.23,7.51,7.51,0,0,1-4.69,1.38,8.88,8.88,0,0,1-7.13-3.13c-1.77-2.09-2.66-4.91-2.66-8.48a14.35,14.35,0,0,1,2.56-8.68,8.5,8.5,0,0,1,7.28-3.51A8,8,0,0,1,247.78,118.86Zm2.06,16.6c1-1.07,1.46-2.78,1.46-5.11a7.83,7.83,0,0,0-1.38-5,4.52,4.52,0,0,0-3.72-1.72,4.37,4.37,0,0,0-4.37,3,10.5,10.5,0,0,0-.64,3.93,9,9,0,0,0,.68,3.59,4.41,4.41,0,0,0,4.4,2.93A4.66,4.66,0,0,0,249.84,135.46Z"/><path class="cls-1" d="M269.12,116.12H263v-5.58h6.14ZM263,118.88h6.14V142H263Z"/><path class="cls-1" d="M279.67,134.64a4,4,0,0,0,.83,2.29c.75.81,2.15,1.21,4.18,1.21a6.44,6.44,0,0,0,2.85-.53,1.69,1.69,0,0,0,1.06-1.59,1.73,1.73,0,0,0-.85-1.55,34.76,34.76,0,0,0-6.33-1.83,13.07,13.07,0,0,1-5.56-2.44,5.28,5.28,0,0,1-1.62-4.16,7.2,7.2,0,0,1,2.52-5.51c1.69-1.54,4.05-2.31,7.1-2.31a13.09,13.09,0,0,1,7.08,1.73q2.73,1.74,3.14,6H288a3.51,3.51,0,0,0-.66-1.85,4.14,4.14,0,0,0-3.4-1.23,4.9,4.9,0,0,0-2.82.62,1.77,1.77,0,0,0-.84,1.44,1.57,1.57,0,0,0,.89,1.51,37.89,37.89,0,0,0,6.32,1.68,11.48,11.48,0,0,1,5.42,2.57A5.82,5.82,0,0,1,294.7,135a7,7,0,0,1-2.56,5.62q-2.56,2.18-7.93,2.17t-8.07-2.3a7.48,7.48,0,0,1-2.61-5.87Z"/><path class="cls-1" d="M296.78,123.41v-4.32H300v-6.45h6v6.45h3.76v4.32H306v12.23a2.76,2.76,0,0,0,.36,1.77,4,4,0,0,0,2.21.35h.58l.61,0v4.52l-2.87.11c-2.86.09-4.81-.4-5.86-1.49a4.42,4.42,0,0,1-1-3.21V123.41Z"/><path class="cls-1" d="M328.73,119.35a9.39,9.39,0,0,1,4,3.43,11.31,11.31,0,0,1,1.85,4.78,29.83,29.83,0,0,1,.2,4.59H317.91c.09,2.33.9,3.95,2.42,4.89a6.18,6.18,0,0,0,3.34.87,4.67,4.67,0,0,0,4.6-2.66h6.18a7.56,7.56,0,0,1-2.24,4.19q-3.1,3.38-8.71,3.37a12.64,12.64,0,0,1-8.15-2.84q-3.54-2.85-3.53-9.27,0-6,3.19-9.22a11.14,11.14,0,0,1,8.27-3.21A13.26,13.26,0,0,1,328.73,119.35Zm-9.06,5.23a6.3,6.3,0,0,0-1.61,3.58h10.43a5.07,5.07,0,0,0-1.62-3.66,5.3,5.3,0,0,0-3.59-1.24A4.81,4.81,0,0,0,319.67,124.58Z"/><path class="cls-1" d="M350.69,118.34l.52,0v6.2c-.39,0-.73-.07-1-.08s-.54,0-.73,0c-2.43,0-4.07.79-4.9,2.38a9.17,9.17,0,0,0-.7,4.11V142h-6.1V118.88h5.78v4a12.78,12.78,0,0,1,2.44-3.17,6.65,6.65,0,0,1,4.42-1.42Z"/><path class="cls-1" d="M369.83,119.35a9.36,9.36,0,0,1,4,3.43,11.31,11.31,0,0,1,1.85,4.78,29.83,29.83,0,0,1,.2,4.59H359c.09,2.33.9,3.95,2.42,4.89a6.15,6.15,0,0,0,3.34.87,4.67,4.67,0,0,0,4.6-2.66h6.18a7.56,7.56,0,0,1-2.24,4.19q-3.12,3.38-8.71,3.37a12.64,12.64,0,0,1-8.15-2.84q-3.54-2.85-3.53-9.27,0-6,3.18-9.22a11.17,11.17,0,0,1,8.28-3.21A13.21,13.21,0,0,1,369.83,119.35Zm-9.05,5.23a6.24,6.24,0,0,0-1.61,3.58h10.42A5.06,5.06,0,0,0,368,124.5a5.3,5.3,0,0,0-3.59-1.24A4.8,4.8,0,0,0,360.78,124.58Z"/><path class="cls-1" d="M391.21,119.25a7.38,7.38,0,0,1,2.65,2.56v-11H400V142h-5.88v-3.21a8.73,8.73,0,0,1-2.95,3,8.34,8.34,0,0,1-4.12.93,8.59,8.59,0,0,1-6.83-3.28,12.58,12.58,0,0,1-2.77-8.42q0-5.93,2.73-9.32a8.86,8.86,0,0,1,7.29-3.4A7.54,7.54,0,0,1,391.21,119.25Zm1.49,16.49a8.44,8.44,0,0,0,1.33-5q0-4.25-2.14-6.07a4.66,4.66,0,0,0-3.06-1.1,4.27,4.27,0,0,0-3.9,2,9.38,9.38,0,0,0-1.24,5,9.15,9.15,0,0,0,1.27,5.13,4.27,4.27,0,0,0,3.83,1.92A4.47,4.47,0,0,0,392.7,135.74Z"/><path class="cls-1" d="M185.32,113.17a7.62,7.62,0,0,1,2.93,2.19,9.61,9.61,0,0,1,1.57,2.63,8.7,8.7,0,0,1,.58,3.29,9.39,9.39,0,0,1-1.12,4.39,6.29,6.29,0,0,1-3.72,3,5.82,5.82,0,0,1,3.07,2.48,10.29,10.29,0,0,1,.9,4.89v2.1a15.2,15.2,0,0,0,.18,2.91,2.63,2.63,0,0,0,1.2,1.79v.78h-7.22c-.19-.69-.34-1.25-.42-1.68a15.82,15.82,0,0,1-.28-2.69l0-2.91c0-2-.37-3.33-1-4s-1.91-1-3.73-1H171.8v12.27h-6.39v-31.3h15A13.47,13.47,0,0,1,185.32,113.17ZM171.8,117.8v8.41h7a7.5,7.5,0,0,0,3.15-.51,3.54,3.54,0,0,0,1.85-3.53c0-1.89-.6-3.17-1.79-3.82a6.47,6.47,0,0,0-3-.55Z"/><path class="cls-1" d="M177.24,103.32A24.71,24.71,0,1,1,152.53,128a24.73,24.73,0,0,1,24.71-24.71m0-4.08A28.79,28.79,0,1,0,206,128a28.79,28.79,0,0,0-28.79-28.79Z"/><path class="cls-2" d="M40,18.79,32.67,65.34S55.5,67.89,58.81,39.2C61.26,18,40,18.79,40,18.79Z"/><path class="cls-2" d="M106.88,65.14l-.7,4.69h12.25s8.17-.81,9-8.17a6.48,6.48,0,0,0-2.29-6.1"/><path class="cls-2" d="M152,53.07l2.93-16.23q-4.44,3.21-9.8,6.72C148.43,45.9,151,50.3,152,53.07Z"/><path class="cls-2" d="M80.22,62.42c-.11.23-.23.44-.35.66L80.1,63Z"/><path class="cls-2" d="M125.78,20.42H114.35L111.9,36.75h12.25s8.16-.81,9-8.16S125.78,20.42,125.78,20.42Z"/><path class="cls-2" d="M184.59,18.79l-7.35,46.55s22.82,2.55,26.13-26.14C205.82,18,184.59,18.79,184.59,18.79Z"/><path class="cls-3" d="M230.32,28.59C227.06,0,194.39,0,194.39,0H161.72l-3.27,17.81C156.62,8.46,149.69,0,139.66,0H91.48L85.32,33.24c-.08-1.52-.2-3.07-.38-4.65C81.68,0,49,0,49,0H16.34L0,88.84C6.38,85.9,35.84,72.68,65.75,66.57c4.37-.9,9.12-2.07,14.12-3.49.12-.22.24-.43.35-.66l-.12.6c36.1-10.23,85.36-32.87,103.26-53.63,0,0-5.17,10.63-28.45,27.45L152,53.07c-1-2.77-3.55-7.17-6.87-9.51-5.79,3.77-12.42,7.79-20,12a6.48,6.48,0,0,1,2.29,6.1c-.81,7.36-9,8.17-9,8.17H106.18l.7-4.69c-8.87,4.4-18.72,9-29.7,13.68l-.21.1-1.83,9.29h49s15.1-1,23.85-13.47L145.38,89s36.76,3.26,55.54-4.9S233.59,57.17,230.32,28.59ZM58.81,39.2C55.5,67.89,32.67,65.34,32.67,65.34L40,18.79S61.26,18,58.81,39.2Zm74.32-10.61c-.82,7.35-9,8.16-9,8.16H111.9l2.45-16.33h11.43S134,21.24,133.13,28.59ZM203.37,39.2c-3.31,28.69-26.13,26.14-26.13,26.14l7.35-46.55S205.82,18,203.37,39.2Z"/><path class="cls-4" d="M80.1,63,77,78.92l.21-.1c11-4.71,20.83-9.28,29.7-13.68l1.75-11.64h11.43a10.68,10.68,0,0,1,5.06,2.06c7.57-4.21,14.2-8.23,20-12,3.58-2.34,6.78-4.66,9.8-6.72,23.55-16,30.9-30.71,30.9-30.71C167.91,26.89,116.2,52.79,80.1,63Z"/><path class="cls-4" d="M55.54,84.13c10.23-4.45,19-10.5,24.33-21-5,1.42-9.75,2.59-14.12,3.49C35.84,72.68,6.38,85.9,0,88.84L0,89S36.75,92.29,55.54,84.13Z"/></g></g></svg>