<svg width="14" height="12" viewBox="0 0 14 12" fill="none" xmlns="http://www.w3.org/2000/svg">
<path d="M12.3333 0.666626H1.66659C0.933252 0.666626 0.339919 1.26663 0.339919 1.99996L0.333252 9.99996C0.333252 10.7333 0.933252 11.3333 1.66659 11.3333H12.3333C13.0666 11.3333 13.6666 10.7333 13.6666 9.99996V1.99996C13.6666 1.26663 13.0666 0.666626 12.3333 0.666626ZM12.0666 3.49996L7.35325 6.44663C7.13992 6.57996 6.85992 6.57996 6.64659 6.44663L1.93325 3.49996C1.76659 3.39329 1.66659 3.21329 1.66659 3.01996C1.66659 2.57329 2.15325 2.30663 2.53325 2.53996L6.99992 5.33329L11.4666 2.53996C11.8466 2.30663 12.3333 2.57329 12.3333 3.01996C12.3333 3.21329 12.2333 3.39329 12.0666 3.49996Z" fill="white"/>
</svg>
