<svg width="12" height="12" viewBox="0 0 12 12" fill="none" xmlns="http://www.w3.org/2000/svg">
<path d="M10.82 8.17338L9.12669 7.98005C8.72003 7.93338 8.32003 8.07338 8.03336 8.36005L6.80669 9.58671C4.92003 8.62671 3.37336 7.08671 2.41336 5.19338L3.64669 3.96005C3.93336 3.67338 4.07336 3.27338 4.02669 2.86671L3.83336 1.18671C3.75336 0.513381 3.18669 0.00671387 2.50669 0.00671387H1.35336C0.600027 0.00671387 -0.0266396 0.633381 0.0200271 1.38671C0.37336 7.08005 4.92669 11.6267 10.6134 11.98C11.3667 12.0267 11.9934 11.4 11.9934 10.6467V9.49338C12 8.82005 11.4934 8.25338 10.82 8.17338Z" fill="white"/>
</svg>
