<?xml version="1.0" encoding="utf-8"?>
<!-- Generator: Adobe Illustrator 24.1.0, SVG Export Plug-In . SVG Version: 6.00 Build 0)  -->
<svg version="1.1" id="line" xmlns="http://www.w3.org/2000/svg" xmlns:xlink="http://www.w3.org/1999/xlink" x="0px" y="0px"
	 viewBox="0 0 167.7 167.7" style="enable-background:new 0 0 167.7 167.7;" xml:space="preserve">
<style type="text/css">
	.st0{fill:#4CAF50;}
</style>
<g>
	<path class="st0" d="M97.8,61.7c-1.7,0-3.1,1.4-3.1,3.1v14.5l-12-16.3c-0.6-0.7-1.5-1.2-2.4-1.2c-0.3,0-0.7,0-0.9,0.2
		c-1.3,0.4-2.1,1.6-2.1,2.9v23.4c0,1.7,1.4,3.1,3,3.1c1.7,0,3.1-1.4,3.1-3.1V73.7L95.4,90c0.6,0.8,1.5,1.2,2.5,1.2
		c0.3,0,0.7,0,1-0.2c1.3-0.4,2.1-1.6,2.1-2.9V64.8C100.9,63.1,99.5,61.7,97.8,61.7z"/>
	<path class="st0" d="M69.9,61.7c-1.7,0-3.1,1.4-3.1,3.1v23.4c0,1.7,1.4,3.1,3.1,3.1c1.7,0,3.1-1.4,3.1-3.1V64.8
		C73,63.1,71.6,61.7,69.9,61.7z"/>
	<path class="st0" d="M83.8,0.2C37.6,0.2,0.2,37.6,0.2,83.8c0,46.2,37.4,83.6,83.6,83.6s83.6-37.4,83.6-83.6
		C167.5,37.6,130,0.2,83.8,0.2z M129.8,104.8C117.6,119,90.2,136.3,83.9,139c-6.3,2.6-5.3-1.7-5.1-3.2l0.8-5
		c0.2-1.5,0.4-3.8-0.2-5.3c-0.7-1.6-3.2-2.5-5.2-2.9c-28.1-3.8-48.9-23.5-48.9-47.1c0-26.3,26.2-47.7,58.4-47.7s58.4,21.4,58.4,47.7
		C142.2,86.1,138.2,95.6,129.8,104.8z"/>
	<path class="st0" d="M119.7,67.8c1.7,0,3.1-1.4,3.1-3.1c0-1.7-1.4-3.1-3.1-3.1h-11.6c-1.7,0-3.1,1.4-3.1,3.1v23.4
		c0,1.7,1.4,3.1,3.1,3.1h11.6c1.7,0,3.1-1.4,3.1-3.1c0-1.7-1.4-3.1-3.1-3.1h-8.5v-5.5h8.5c1.7,0,3.1-1.4,3.1-3.1
		c0-1.7-1.4-3.1-3.1-3.1h-8.5v-5.5H119.7z"/>
	<path class="st0" d="M61,85h-8.5V64.8c0-1.7-1.4-3.1-3.1-3.1c-1.7,0-3.1,1.4-3.1,3.1v23.4c0,1.7,1.4,3.1,3.1,3.1H61
		c1.7,0,3.1-1.4,3.1-3.1C64,86.4,62.7,85,61,85z"/>
</g>
</svg>
