<svg xmlns="http://www.w3.org/2000/svg" xmlns:xlink="http://www.w3.org/1999/xlink" viewBox="0 0 255.43 122.34"><defs><style>.cls-1{fill:url(#linear-gradient);}.cls-2{fill:url(#linear-gradient-2);}.cls-3{fill:url(#linear-gradient-3);}</style><linearGradient id="linear-gradient" x1="304.25" y1="-209.87" x2="253.6" y2="-159.22" gradientTransform="translate(7.87 375.46) rotate(-45)" gradientUnits="userSpaceOnUse"><stop offset="0" stop-color="#dd6c43"/><stop offset="1" stop-color="#e04040"/></linearGradient><linearGradient id="linear-gradient-2" x1="408.57" y1="-247.66" x2="255.51" y2="-94.6" gradientTransform="translate(-204.32 232.29)" xlink:href="#linear-gradient"/><linearGradient id="linear-gradient-3" x1="410.39" y1="-182.95" x2="359.74" y2="-132.3" gradientTransform="translate(341.56 -309.07) rotate(135)" xlink:href="#linear-gradient"/></defs><g id="Layer_2" data-name="Layer 2"><g id="Layer_1-2" data-name="Layer 1"><rect class="cls-1" x="60.27" y="11.92" width="28.65" height="71.63" rx="14.33" transform="translate(55.61 -38.77) rotate(45)"/><path class="cls-2" d="M213.74,122.34a14.14,14.14,0,0,1-10-24.14l13.78-13.78A32.91,32.91,0,0,0,171,37.88l-66.54,66.54A61.18,61.18,0,0,1,17.92,17.89L31.54,4.27a14.14,14.14,0,0,1,20,20L37.91,37.88A32.91,32.91,0,0,0,84.45,84.42L151,17.89a61.18,61.18,0,0,1,86.52,86.53L223.73,118.2A14.09,14.09,0,0,1,213.74,122.34Z"/><rect class="cls-3" x="166.41" y="38.85" width="28.65" height="71.63" rx="14.33" transform="translate(255.75 255.26) rotate(-135)"/></g></g></svg>